<svg xmlns="http://www.w3.org/2000/svg" version="1.1" xmlns:xlink="http://www.w3.org/1999/xlink" xmlns:svgjs="http://svgjs.com/svgjs" width="1440" height="560" preserveAspectRatio="none" viewBox="0 0 1440 560"><g mask="url(&quot;#SvgjsMask1054&quot;)" fill="none"><rect width="1440" height="560" x="0" y="0" fill="#0e2a47"></rect><path d="M-53 382.35L-53 382.35" stroke="#132e65" stroke-width="1.5"></path><path d="M-53 382.35L90.37 373.51" stroke="#132e65" stroke-width="1.5"></path><path d="M-53 382.35L-78.97 552.77" stroke="#132e65" stroke-width="1.5"></path><path d="M-53 382.35L90.63 516.23" stroke="#132e65" stroke-width="1.5"></path><path d="M-78.97 552.77L-78.97 552.77" stroke="#132e65" stroke-width="1.5"></path><path d="M-78.97 552.77L-111.92 670.75" stroke="#132e65" stroke-width="1.5"></path><path d="M-78.97 552.77L90.63 516.23" stroke="#132e65" stroke-width="1.5"></path><path d="M-78.97 552.77L88.01 650.24" stroke="#132e65" stroke-width="1.5"></path><path d="M-78.97 552.77L90.37 373.51" stroke="#132e65" stroke-width="1.5"></path><path d="M-111.92 670.75L-111.92 670.75" stroke="#132e65" stroke-width="1.5"></path><path d="M-111.92 670.75L88.01 650.24" stroke="#132e65" stroke-width="1.5"></path><path d="M-111.92 670.75L90.63 516.23" stroke="#132e65" stroke-width="1.5"></path><path d="M-111.92 670.75L-53 382.35" stroke="#132e65" stroke-width="1.5"></path><path d="M-111.92 670.75L220.43 656.88" stroke="#132e65" stroke-width="1.5"></path><path d="M-111.92 670.75L208.3 513.39" stroke="#132e65" stroke-width="1.5"></path><path d="M90.37 373.51L90.37 373.51" stroke="#132e65" stroke-width="1.5"></path><path d="M90.37 373.51L90.63 516.23" stroke="#132e65" stroke-width="1.5"></path><path d="M90.37 373.51L241.19 340.67" stroke="#132e65" stroke-width="1.5"></path><path d="M90.63 516.23L90.63 516.23" stroke="#132e65" stroke-width="1.5"></path><path d="M90.63 516.23L208.3 513.39" stroke="#132e65" stroke-width="1.5"></path><path d="M88.01 650.24L88.01 650.24" stroke="#132e65" stroke-width="1.5"></path><path d="M88.01 650.24L220.43 656.88" stroke="#132e65" stroke-width="1.5"></path><path d="M88.01 650.24L90.63 516.23" stroke="#132e65" stroke-width="1.5"></path><path d="M241.19 340.67L241.19 340.67" stroke="#132e65" stroke-width="1.5"></path><path d="M241.19 340.67L343.46 395.16" stroke="#132e65" stroke-width="1.5"></path><path d="M241.19 340.67L208.3 513.39" stroke="#132e65" stroke-width="1.5"></path><path d="M208.3 513.39L208.3 513.39" stroke="#132e65" stroke-width="1.5"></path><path d="M208.3 513.39L220.43 656.88" stroke="#132e65" stroke-width="1.5"></path><path d="M220.43 656.88L220.43 656.88" stroke="#132e65" stroke-width="1.5"></path><path d="M220.43 656.88L90.63 516.23" stroke="#132e65" stroke-width="1.5"></path><path d="M220.43 656.88L388.41 524.73" stroke="#132e65" stroke-width="1.5"></path><path d="M220.43 656.88L343.46 395.16" stroke="#132e65" stroke-width="1.5"></path><path d="M343.46 395.16L343.46 395.16" stroke="#132e65" stroke-width="1.5"></path><path d="M343.46 395.16L388.41 524.73" stroke="#132e65" stroke-width="1.5"></path><path d="M343.46 395.16L516.71 399.46" stroke="#132e65" stroke-width="1.5"></path><path d="M343.46 395.16L208.3 513.39" stroke="#132e65" stroke-width="1.5"></path><path d="M343.46 395.16L545.27 529.76" stroke="#132e65" stroke-width="1.5"></path><path d="M343.46 395.16L90.37 373.51" stroke="#132e65" stroke-width="1.5"></path><path d="M388.41 524.73L388.41 524.73" stroke="#132e65" stroke-width="1.5"></path><path d="M388.41 524.73L545.27 529.76" stroke="#132e65" stroke-width="1.5"></path><path d="M516.71 399.46L516.71 399.46" stroke="#132e65" stroke-width="1.5"></path><path d="M516.71 399.46L545.27 529.76" stroke="#132e65" stroke-width="1.5"></path><path d="M516.71 399.46L677.09 400.14" stroke="#132e65" stroke-width="1.5"></path><path d="M516.71 399.46L388.41 524.73" stroke="#132e65" stroke-width="1.5"></path><path d="M516.71 399.46L695.49 510.1" stroke="#132e65" stroke-width="1.5"></path><path d="M516.71 399.46L663.28 248.68" stroke="#132e65" stroke-width="1.5"></path><path d="M545.27 529.76L545.27 529.76" stroke="#132e65" stroke-width="1.5"></path><path d="M545.27 529.76L543.64 676" stroke="#132e65" stroke-width="1.5"></path><path d="M545.27 529.76L695.49 510.1" stroke="#132e65" stroke-width="1.5"></path><path d="M545.27 529.76L677.09 400.14" stroke="#132e65" stroke-width="1.5"></path><path d="M543.64 676L543.64 676" stroke="#132e65" stroke-width="1.5"></path><path d="M543.64 676L675.72 702.44" stroke="#132e65" stroke-width="1.5"></path><path d="M663.28 248.68L663.28 248.68" stroke="#132e65" stroke-width="1.5"></path><path d="M663.28 248.68L677.09 400.14" stroke="#132e65" stroke-width="1.5"></path><path d="M663.28 248.68L792.08 382.21" stroke="#132e65" stroke-width="1.5"></path><path d="M663.28 248.68L861.76 259.23" stroke="#132e65" stroke-width="1.5"></path><path d="M677.09 400.14L677.09 400.14" stroke="#132e65" stroke-width="1.5"></path><path d="M677.09 400.14L695.49 510.1" stroke="#132e65" stroke-width="1.5"></path><path d="M677.09 400.14L792.08 382.21" stroke="#132e65" stroke-width="1.5"></path><path d="M695.49 510.1L695.49 510.1" stroke="#132e65" stroke-width="1.5"></path><path d="M675.72 702.44L675.72 702.44" stroke="#132e65" stroke-width="1.5"></path><path d="M675.72 702.44L844.55 686.68" stroke="#132e65" stroke-width="1.5"></path><path d="M675.72 702.44L695.49 510.1" stroke="#132e65" stroke-width="1.5"></path><path d="M675.72 702.44L545.27 529.76" stroke="#132e65" stroke-width="1.5"></path><path d="M675.72 702.44L845.61 544.32" stroke="#132e65" stroke-width="1.5"></path><path d="M675.72 702.44L966.14 662.11" stroke="#132e65" stroke-width="1.5"></path><path d="M861.76 259.23L861.76 259.23" stroke="#132e65" stroke-width="1.5"></path><path d="M861.76 259.23L792.08 382.21" stroke="#132e65" stroke-width="1.5"></path><path d="M861.76 259.23L973.87 376.58" stroke="#132e65" stroke-width="1.5"></path><path d="M792.08 382.21L792.08 382.21" stroke="#132e65" stroke-width="1.5"></path><path d="M792.08 382.21L695.49 510.1" stroke="#132e65" stroke-width="1.5"></path><path d="M792.08 382.21L845.61 544.32" stroke="#132e65" stroke-width="1.5"></path><path d="M845.61 544.32L845.61 544.32" stroke="#132e65" stroke-width="1.5"></path><path d="M845.61 544.32L959.58 488.5" stroke="#132e65" stroke-width="1.5"></path><path d="M844.55 686.68L844.55 686.68" stroke="#132e65" stroke-width="1.5"></path><path d="M844.55 686.68L966.14 662.11" stroke="#132e65" stroke-width="1.5"></path><path d="M844.55 686.68L845.61 544.32" stroke="#132e65" stroke-width="1.5"></path><path d="M844.55 686.68L959.58 488.5" stroke="#132e65" stroke-width="1.5"></path><path d="M844.55 686.68L695.49 510.1" stroke="#132e65" stroke-width="1.5"></path><path d="M961.61 -75.79L961.61 -75.79" stroke="#132e65" stroke-width="1.5"></path><path d="M961.61 -75.79L968.78 75.58" stroke="#132e65" stroke-width="1.5"></path><path d="M961.61 -75.79L1120.39 -81.35" stroke="#132e65" stroke-width="1.5"></path><path d="M961.61 -75.79L1157.17 91.55" stroke="#132e65" stroke-width="1.5"></path><path d="M968.78 75.58L968.78 75.58" stroke="#132e65" stroke-width="1.5"></path><path d="M968.78 75.58L1157.17 91.55" stroke="#132e65" stroke-width="1.5"></path><path d="M968.78 75.58L861.76 259.23" stroke="#132e65" stroke-width="1.5"></path><path d="M968.78 75.58L1118.52 229.34" stroke="#132e65" stroke-width="1.5"></path><path d="M968.78 75.58L1120.39 -81.35" stroke="#132e65" stroke-width="1.5"></path><path d="M973.87 376.58L973.87 376.58" stroke="#132e65" stroke-width="1.5"></path><path d="M973.87 376.58L959.58 488.5" stroke="#132e65" stroke-width="1.5"></path><path d="M973.87 376.58L1115.45 379.42" stroke="#132e65" stroke-width="1.5"></path><path d="M959.58 488.5L959.58 488.5" stroke="#132e65" stroke-width="1.5"></path><path d="M959.58 488.5L1089.19 515.32" stroke="#132e65" stroke-width="1.5"></path><path d="M959.58 488.5L966.14 662.11" stroke="#132e65" stroke-width="1.5"></path><path d="M959.58 488.5L1115.45 379.42" stroke="#132e65" stroke-width="1.5"></path><path d="M966.14 662.11L966.14 662.11" stroke="#132e65" stroke-width="1.5"></path><path d="M966.14 662.11L1128.24 650.02" stroke="#132e65" stroke-width="1.5"></path><path d="M966.14 662.11L845.61 544.32" stroke="#132e65" stroke-width="1.5"></path><path d="M1120.39 -81.35L1120.39 -81.35" stroke="#132e65" stroke-width="1.5"></path><path d="M1120.39 -81.35L1157.17 91.55" stroke="#132e65" stroke-width="1.5"></path><path d="M1120.39 -81.35L1297.03 97.18" stroke="#132e65" stroke-width="1.5"></path><path d="M1120.39 -81.35L1395.28 -72.47" stroke="#132e65" stroke-width="1.5"></path><path d="M1120.39 -81.35L1249.08 196.37" stroke="#132e65" stroke-width="1.5"></path><path d="M1157.17 91.55L1157.17 91.55" stroke="#132e65" stroke-width="1.5"></path><path d="M1157.17 91.55L1249.08 196.37" stroke="#132e65" stroke-width="1.5"></path><path d="M1157.17 91.55L1297.03 97.18" stroke="#132e65" stroke-width="1.5"></path><path d="M1157.17 91.55L1118.52 229.34" stroke="#132e65" stroke-width="1.5"></path><path d="M1118.52 229.34L1118.52 229.34" stroke="#132e65" stroke-width="1.5"></path><path d="M1118.52 229.34L1249.08 196.37" stroke="#132e65" stroke-width="1.5"></path><path d="M1118.52 229.34L1115.45 379.42" stroke="#132e65" stroke-width="1.5"></path><path d="M1118.52 229.34L1282.49 348.67" stroke="#132e65" stroke-width="1.5"></path><path d="M1115.45 379.42L1115.45 379.42" stroke="#132e65" stroke-width="1.5"></path><path d="M1115.45 379.42L1089.19 515.32" stroke="#132e65" stroke-width="1.5"></path><path d="M1089.19 515.32L1089.19 515.32" stroke="#132e65" stroke-width="1.5"></path><path d="M1128.24 650.02L1128.24 650.02" stroke="#132e65" stroke-width="1.5"></path><path d="M1128.24 650.02L1089.19 515.32" stroke="#132e65" stroke-width="1.5"></path><path d="M1128.24 650.02L1306.14 694" stroke="#132e65" stroke-width="1.5"></path><path d="M1128.24 650.02L1250.49 504.8" stroke="#132e65" stroke-width="1.5"></path><path d="M1128.24 650.02L959.58 488.5" stroke="#132e65" stroke-width="1.5"></path><path d="M1128.24 650.02L1115.45 379.42" stroke="#132e65" stroke-width="1.5"></path><path d="M1297.03 97.18L1297.03 97.18" stroke="#132e65" stroke-width="1.5"></path><path d="M1297.03 97.18L1249.08 196.37" stroke="#132e65" stroke-width="1.5"></path><path d="M1297.03 97.18L1443.05 104.32" stroke="#132e65" stroke-width="1.5"></path><path d="M1297.03 97.18L1428.57 202.78" stroke="#132e65" stroke-width="1.5"></path><path d="M1297.03 97.18L1395.28 -72.47" stroke="#132e65" stroke-width="1.5"></path><path d="M1297.03 97.18L1118.52 229.34" stroke="#132e65" stroke-width="1.5"></path><path d="M1249.08 196.37L1249.08 196.37" stroke="#132e65" stroke-width="1.5"></path><path d="M1249.08 196.37L1282.49 348.67" stroke="#132e65" stroke-width="1.5"></path><path d="M1249.08 196.37L1428.57 202.78" stroke="#132e65" stroke-width="1.5"></path><path d="M1282.49 348.67L1282.49 348.67" stroke="#132e65" stroke-width="1.5"></path><path d="M1282.49 348.67L1434.65 356.56" stroke="#132e65" stroke-width="1.5"></path><path d="M1282.49 348.67L1250.49 504.8" stroke="#132e65" stroke-width="1.5"></path><path d="M1282.49 348.67L1115.45 379.42" stroke="#132e65" stroke-width="1.5"></path><path d="M1250.49 504.8L1250.49 504.8" stroke="#132e65" stroke-width="1.5"></path><path d="M1250.49 504.8L1089.19 515.32" stroke="#132e65" stroke-width="1.5"></path><path d="M1250.49 504.8L1115.45 379.42" stroke="#132e65" stroke-width="1.5"></path><path d="M1250.49 504.8L1306.14 694" stroke="#132e65" stroke-width="1.5"></path><path d="M1250.49 504.8L1419.32 639.17" stroke="#132e65" stroke-width="1.5"></path><path d="M1306.14 694L1306.14 694" stroke="#132e65" stroke-width="1.5"></path><path d="M1306.14 694L1419.32 639.17" stroke="#132e65" stroke-width="1.5"></path><path d="M1395.28 -72.47L1395.28 -72.47" stroke="#132e65" stroke-width="1.5"></path><path d="M1395.28 -72.47L1443.05 104.32" stroke="#132e65" stroke-width="1.5"></path><path d="M1395.28 -72.47L1577.65 -100.73" stroke="#132e65" stroke-width="1.5"></path><path d="M1395.28 -72.47L1595.21 92.72" stroke="#132e65" stroke-width="1.5"></path><path d="M1395.28 -72.47L1428.57 202.78" stroke="#132e65" stroke-width="1.5"></path><path d="M1443.05 104.32L1443.05 104.32" stroke="#132e65" stroke-width="1.5"></path><path d="M1443.05 104.32L1428.57 202.78" stroke="#132e65" stroke-width="1.5"></path><path d="M1443.05 104.32L1595.21 92.72" stroke="#132e65" stroke-width="1.5"></path><path d="M1443.05 104.32L1592.95 196.34" stroke="#132e65" stroke-width="1.5"></path><path d="M1443.05 104.32L1249.08 196.37" stroke="#132e65" stroke-width="1.5"></path><path d="M1428.57 202.78L1428.57 202.78" stroke="#132e65" stroke-width="1.5"></path><path d="M1428.57 202.78L1434.65 356.56" stroke="#132e65" stroke-width="1.5"></path><path d="M1434.65 356.56L1434.65 356.56" stroke="#132e65" stroke-width="1.5"></path><path d="M1434.65 356.56L1591.11 378.15" stroke="#132e65" stroke-width="1.5"></path><path d="M1434.65 356.56L1592.95 196.34" stroke="#132e65" stroke-width="1.5"></path><path d="M1434.65 356.56L1250.49 504.8" stroke="#132e65" stroke-width="1.5"></path><path d="M1434.65 356.56L1249.08 196.37" stroke="#132e65" stroke-width="1.5"></path><path d="M1419.32 639.17L1419.32 639.17" stroke="#132e65" stroke-width="1.5"></path><path d="M1419.32 639.17L1612.01 700.06" stroke="#132e65" stroke-width="1.5"></path><path d="M1577.65 -100.73L1577.65 -100.73" stroke="#132e65" stroke-width="1.5"></path><path d="M1577.65 -100.73L1595.21 92.72" stroke="#132e65" stroke-width="1.5"></path><path d="M1577.65 -100.73L1443.05 104.32" stroke="#132e65" stroke-width="1.5"></path><path d="M1577.65 -100.73L1592.95 196.34" stroke="#132e65" stroke-width="1.5"></path><path d="M1577.65 -100.73L1428.57 202.78" stroke="#132e65" stroke-width="1.5"></path><path d="M1595.21 92.72L1595.21 92.72" stroke="#132e65" stroke-width="1.5"></path><path d="M1595.21 92.72L1592.95 196.34" stroke="#132e65" stroke-width="1.5"></path><path d="M1592.95 196.34L1592.95 196.34" stroke="#132e65" stroke-width="1.5"></path><path d="M1592.95 196.34L1428.57 202.78" stroke="#132e65" stroke-width="1.5"></path><path d="M1591.11 378.15L1591.11 378.15" stroke="#132e65" stroke-width="1.5"></path><path d="M1591.11 378.15L1605.11 546.52" stroke="#132e65" stroke-width="1.5"></path><path d="M1591.11 378.15L1592.95 196.34" stroke="#132e65" stroke-width="1.5"></path><path d="M1605.11 546.52L1605.11 546.52" stroke="#132e65" stroke-width="1.5"></path><path d="M1605.11 546.52L1612.01 700.06" stroke="#132e65" stroke-width="1.5"></path><path d="M1605.11 546.52L1419.32 639.17" stroke="#132e65" stroke-width="1.5"></path><path d="M1605.11 546.52L1434.65 356.56" stroke="#132e65" stroke-width="1.5"></path><path d="M1605.11 546.52L1306.14 694" stroke="#132e65" stroke-width="1.5"></path><path d="M1605.11 546.52L1592.95 196.34" stroke="#132e65" stroke-width="1.5"></path><path d="M1612.01 700.06L1612.01 700.06" stroke="#132e65" stroke-width="1.5"></path><path d="M1612.01 700.06L1306.14 694" stroke="#132e65" stroke-width="1.5"></path><path d="M1612.01 700.06L1591.11 378.15" stroke="#132e65" stroke-width="1.5"></path><path d="M1612.01 700.06L1434.65 356.56" stroke="#132e65" stroke-width="1.5"></path><path d="M1612.01 700.06L1250.49 504.8" stroke="#132e65" stroke-width="1.5"></path><circle r="5" cx="-53" cy="382.35" fill="#132e65"></circle><circle r="5" cx="-78.97" cy="552.77" fill="#132e65"></circle><circle r="5" cx="-111.92" cy="670.75" fill="#132e65"></circle><circle r="5" cx="90.37" cy="373.51" fill="#132e65"></circle><circle r="5" cx="90.63" cy="516.23" fill="#132e65"></circle><circle r="5" cx="88.01" cy="650.24" fill="#132e65"></circle><circle r="5" cx="241.19" cy="340.67" fill="#132e65"></circle><circle r="5" cx="208.3" cy="513.39" fill="#132e65"></circle><circle r="5" cx="220.43" cy="656.88" fill="#132e65"></circle><circle r="5" cx="343.46" cy="395.16" fill="#132e65"></circle><circle r="5" cx="388.41" cy="524.73" fill="#132e65"></circle><circle r="5" cx="516.71" cy="399.46" fill="#132e65"></circle><circle r="5" cx="545.27" cy="529.76" fill="#132e65"></circle><circle r="5" cx="543.64" cy="676" fill="#132e65"></circle><circle r="5" cx="663.28" cy="248.68" fill="#132e65"></circle><circle r="5" cx="677.09" cy="400.14" fill="#132e65"></circle><circle r="5" cx="695.49" cy="510.1" fill="#132e65"></circle><circle r="5" cx="675.72" cy="702.44" fill="#132e65"></circle><circle r="5" cx="861.76" cy="259.23" fill="#132e65"></circle><circle r="5" cx="792.08" cy="382.21" fill="#132e65"></circle><circle r="5" cx="845.61" cy="544.32" fill="#132e65"></circle><circle r="5" cx="844.55" cy="686.68" fill="#132e65"></circle><circle r="5" cx="961.61" cy="-75.79" fill="#132e65"></circle><circle r="5" cx="968.78" cy="75.58" fill="#132e65"></circle><circle r="5" cx="973.87" cy="376.58" fill="#132e65"></circle><circle r="5" cx="959.58" cy="488.5" fill="#132e65"></circle><circle r="5" cx="966.14" cy="662.11" fill="#132e65"></circle><circle r="5" cx="1120.39" cy="-81.35" fill="#132e65"></circle><circle r="5" cx="1157.17" cy="91.55" fill="#132e65"></circle><circle r="5" cx="1118.52" cy="229.34" fill="#132e65"></circle><circle r="5" cx="1115.45" cy="379.42" fill="#132e65"></circle><circle r="5" cx="1089.19" cy="515.32" fill="#132e65"></circle><circle r="5" cx="1128.24" cy="650.02" fill="#132e65"></circle><circle r="5" cx="1297.03" cy="97.18" fill="#132e65"></circle><circle r="5" cx="1249.08" cy="196.37" fill="#132e65"></circle><circle r="5" cx="1282.49" cy="348.67" fill="#132e65"></circle><circle r="5" cx="1250.49" cy="504.8" fill="#132e65"></circle><circle r="5" cx="1306.14" cy="694" fill="#132e65"></circle><circle r="5" cx="1395.28" cy="-72.47" fill="#132e65"></circle><circle r="5" cx="1443.05" cy="104.32" fill="#132e65"></circle><circle r="5" cx="1428.57" cy="202.78" fill="#132e65"></circle><circle r="5" cx="1434.65" cy="356.56" fill="#132e65"></circle><circle r="5" cx="1419.32" cy="639.17" fill="#132e65"></circle><circle r="5" cx="1577.65" cy="-100.73" fill="#132e65"></circle><circle r="5" cx="1595.21" cy="92.72" fill="#132e65"></circle><circle r="5" cx="1592.95" cy="196.34" fill="#132e65"></circle><circle r="5" cx="1591.11" cy="378.15" fill="#132e65"></circle><circle r="5" cx="1605.11" cy="546.52" fill="#132e65"></circle><circle r="5" cx="1612.01" cy="700.06" fill="#132e65"></circle><path d="M107.9 539.62L107.9 539.62" stroke="hsl(228.5, 77.2%, 51.5%)" stroke-width="1.5"></path><path d="M107.9 539.62L74.78 710.58" stroke="hsl(228.5, 77.2%, 51.5%)" stroke-width="1.5"></path><path d="M107.9 539.62L252.06 656.44" stroke="hsl(228.5, 77.2%, 51.5%)" stroke-width="1.5"></path><path d="M107.9 539.62L-87.13 544.34" stroke="hsl(228.5, 77.2%, 51.5%)" stroke-width="1.5"></path><path d="M107.9 539.62L345.11 525.94" stroke="hsl(228.5, 77.2%, 51.5%)" stroke-width="1.5"></path><path d="M526.71 709.47L526.71 709.47" stroke="hsl(228.5, 77.2%, 51.5%)" stroke-width="1.5"></path><path d="M526.71 709.47L672.81 658.31" stroke="hsl(228.5, 77.2%, 51.5%)" stroke-width="1.5"></path><path d="M526.71 709.47L383.18 650.44" stroke="hsl(228.5, 77.2%, 51.5%)" stroke-width="1.5"></path><path d="M526.71 709.47L530.57 550.81" stroke="hsl(228.5, 77.2%, 51.5%)" stroke-width="1.5"></path><path d="M526.71 709.47L664.04 514.52" stroke="hsl(228.5, 77.2%, 51.5%)" stroke-width="1.5"></path><path d="M526.71 709.47L345.11 525.94" stroke="hsl(228.5, 77.2%, 51.5%)" stroke-width="1.5"></path><path d="M845.91 515.09L845.91 515.09" stroke="hsl(228.5, 77.2%, 51.5%)" stroke-width="1.5"></path><path d="M845.91 515.09L854.49 408.6" stroke="hsl(228.5, 77.2%, 51.5%)" stroke-width="1.5"></path><path d="M845.91 515.09L958.63 497.79" stroke="hsl(228.5, 77.2%, 51.5%)" stroke-width="1.5"></path><path d="M845.91 515.09L664.04 514.52" stroke="hsl(228.5, 77.2%, 51.5%)" stroke-width="1.5"></path><path d="M848.9 705.53L848.9 705.53" stroke="hsl(228.5, 77.2%, 51.5%)" stroke-width="1.5"></path><path d="M848.9 705.53L953.38 708.81" stroke="hsl(228.5, 77.2%, 51.5%)" stroke-width="1.5"></path><path d="M848.9 705.53L672.81 658.31" stroke="hsl(228.5, 77.2%, 51.5%)" stroke-width="1.5"></path><path d="M848.9 705.53L845.91 515.09" stroke="hsl(228.5, 77.2%, 51.5%)" stroke-width="1.5"></path><path d="M848.9 705.53L958.63 497.79" stroke="hsl(228.5, 77.2%, 51.5%)" stroke-width="1.5"></path><path d="M848.9 705.53L1114.24 702.19" stroke="hsl(228.5, 77.2%, 51.5%)" stroke-width="1.5"></path><path d="M848.9 705.53L664.04 514.52" stroke="hsl(228.5, 77.2%, 51.5%)" stroke-width="1.5"></path><path d="M1134.25 533.07L1134.25 533.07" stroke="hsl(228.5, 77.2%, 51.5%)" stroke-width="1.5"></path><path d="M1134.25 533.07L1238.83 508.65" stroke="hsl(228.5, 77.2%, 51.5%)" stroke-width="1.5"></path><path d="M1134.25 533.07L1125.71 377.45" stroke="hsl(228.5, 77.2%, 51.5%)" stroke-width="1.5"></path><path d="M1134.25 533.07L1114.24 702.19" stroke="hsl(228.5, 77.2%, 51.5%)" stroke-width="1.5"></path><path d="M1134.25 533.07L958.63 497.79" stroke="hsl(228.5, 77.2%, 51.5%)" stroke-width="1.5"></path><path d="M1134.25 533.07L1262.07 398.02" stroke="hsl(228.5, 77.2%, 51.5%)" stroke-width="1.5"></path><path d="M-87.13 544.34L-87.13 544.34" stroke="hsl(228.5, 77.2%, 51.5%)" stroke-width="1.5"></path><path d="M-87.13 544.34L-80.39 693.32" stroke="hsl(228.5, 77.2%, 51.5%)" stroke-width="1.5"></path><path d="M-87.13 544.34L74.78 710.58" stroke="hsl(228.5, 77.2%, 51.5%)" stroke-width="1.5"></path><path d="M-87.13 544.34L252.06 656.44" stroke="hsl(228.5, 77.2%, 51.5%)" stroke-width="1.5"></path><path d="M-80.39 693.32L-80.39 693.32" stroke="hsl(228.5, 77.2%, 51.5%)" stroke-width="1.5"></path><path d="M-80.39 693.32L74.78 710.58" stroke="hsl(228.5, 77.2%, 51.5%)" stroke-width="1.5"></path><path d="M-80.39 693.32L107.9 539.62" stroke="hsl(228.5, 77.2%, 51.5%)" stroke-width="1.5"></path><path d="M-80.39 693.32L252.06 656.44" stroke="hsl(228.5, 77.2%, 51.5%)" stroke-width="1.5"></path><path d="M-80.39 693.32L345.11 525.94" stroke="hsl(228.5, 77.2%, 51.5%)" stroke-width="1.5"></path><path d="M-80.39 693.32L383.18 650.44" stroke="hsl(228.5, 77.2%, 51.5%)" stroke-width="1.5"></path><path d="M74.78 710.58L74.78 710.58" stroke="hsl(228.5, 77.2%, 51.5%)" stroke-width="1.5"></path><path d="M252.06 656.44L252.06 656.44" stroke="hsl(228.5, 77.2%, 51.5%)" stroke-width="1.5"></path><path d="M252.06 656.44L383.18 650.44" stroke="hsl(228.5, 77.2%, 51.5%)" stroke-width="1.5"></path><path d="M252.06 656.44L345.11 525.94" stroke="hsl(228.5, 77.2%, 51.5%)" stroke-width="1.5"></path><path d="M345.11 525.94L345.11 525.94" stroke="hsl(228.5, 77.2%, 51.5%)" stroke-width="1.5"></path><path d="M345.11 525.94L383.18 650.44" stroke="hsl(228.5, 77.2%, 51.5%)" stroke-width="1.5"></path><path d="M383.18 650.44L383.18 650.44" stroke="hsl(228.5, 77.2%, 51.5%)" stroke-width="1.5"></path><path d="M530.57 550.81L530.57 550.81" stroke="hsl(228.5, 77.2%, 51.5%)" stroke-width="1.5"></path><path d="M530.57 550.81L664.04 514.52" stroke="hsl(228.5, 77.2%, 51.5%)" stroke-width="1.5"></path><path d="M530.57 550.81L383.18 650.44" stroke="hsl(228.5, 77.2%, 51.5%)" stroke-width="1.5"></path><path d="M701.09 370.01L701.09 370.01" stroke="hsl(228.5, 77.2%, 51.5%)" stroke-width="1.5"></path><path d="M701.09 370.01L664.04 514.52" stroke="hsl(228.5, 77.2%, 51.5%)" stroke-width="1.5"></path><path d="M701.09 370.01L854.49 408.6" stroke="hsl(228.5, 77.2%, 51.5%)" stroke-width="1.5"></path><path d="M701.09 370.01L845.91 515.09" stroke="hsl(228.5, 77.2%, 51.5%)" stroke-width="1.5"></path><path d="M664.04 514.52L664.04 514.52" stroke="hsl(228.5, 77.2%, 51.5%)" stroke-width="1.5"></path><path d="M664.04 514.52L672.81 658.31" stroke="hsl(228.5, 77.2%, 51.5%)" stroke-width="1.5"></path><path d="M664.04 514.52L854.49 408.6" stroke="hsl(228.5, 77.2%, 51.5%)" stroke-width="1.5"></path><path d="M672.81 658.31L672.81 658.31" stroke="hsl(228.5, 77.2%, 51.5%)" stroke-width="1.5"></path><path d="M672.81 658.31L530.57 550.81" stroke="hsl(228.5, 77.2%, 51.5%)" stroke-width="1.5"></path><path d="M854.49 408.6L854.49 408.6" stroke="hsl(228.5, 77.2%, 51.5%)" stroke-width="1.5"></path><path d="M854.49 408.6L958.63 497.79" stroke="hsl(228.5, 77.2%, 51.5%)" stroke-width="1.5"></path><path d="M854.49 408.6L994.19 390.49" stroke="hsl(228.5, 77.2%, 51.5%)" stroke-width="1.5"></path><path d="M854.49 408.6L1125.71 377.45" stroke="hsl(228.5, 77.2%, 51.5%)" stroke-width="1.5"></path><path d="M994.19 390.49L994.19 390.49" stroke="hsl(228.5, 77.2%, 51.5%)" stroke-width="1.5"></path><path d="M994.19 390.49L958.63 497.79" stroke="hsl(228.5, 77.2%, 51.5%)" stroke-width="1.5"></path><path d="M994.19 390.49L1125.71 377.45" stroke="hsl(228.5, 77.2%, 51.5%)" stroke-width="1.5"></path><path d="M994.19 390.49L845.91 515.09" stroke="hsl(228.5, 77.2%, 51.5%)" stroke-width="1.5"></path><path d="M958.63 497.79L958.63 497.79" stroke="hsl(228.5, 77.2%, 51.5%)" stroke-width="1.5"></path><path d="M953.38 708.81L953.38 708.81" stroke="hsl(228.5, 77.2%, 51.5%)" stroke-width="1.5"></path><path d="M953.38 708.81L1114.24 702.19" stroke="hsl(228.5, 77.2%, 51.5%)" stroke-width="1.5"></path><path d="M953.38 708.81L958.63 497.79" stroke="hsl(228.5, 77.2%, 51.5%)" stroke-width="1.5"></path><path d="M953.38 708.81L845.91 515.09" stroke="hsl(228.5, 77.2%, 51.5%)" stroke-width="1.5"></path><path d="M953.38 708.81L1134.25 533.07" stroke="hsl(228.5, 77.2%, 51.5%)" stroke-width="1.5"></path><path d="M1152.42 -104.51L1152.42 -104.51" stroke="hsl(228.5, 77.2%, 51.5%)" stroke-width="1.5"></path><path d="M1152.42 -104.51L1284.85 -59.97" stroke="hsl(228.5, 77.2%, 51.5%)" stroke-width="1.5"></path><path d="M1152.42 -104.51L1143.44 64.36" stroke="hsl(228.5, 77.2%, 51.5%)" stroke-width="1.5"></path><path d="M1152.42 -104.51L1259.39 42.81" stroke="hsl(228.5, 77.2%, 51.5%)" stroke-width="1.5"></path><path d="M1152.42 -104.51L1394.12 62.82" stroke="hsl(228.5, 77.2%, 51.5%)" stroke-width="1.5"></path><path d="M1143.44 64.36L1143.44 64.36" stroke="hsl(228.5, 77.2%, 51.5%)" stroke-width="1.5"></path><path d="M1143.44 64.36L1259.39 42.81" stroke="hsl(228.5, 77.2%, 51.5%)" stroke-width="1.5"></path><path d="M1143.44 64.36L1107.4 230.75" stroke="hsl(228.5, 77.2%, 51.5%)" stroke-width="1.5"></path><path d="M1143.44 64.36L1284.85 -59.97" stroke="hsl(228.5, 77.2%, 51.5%)" stroke-width="1.5"></path><path d="M1143.44 64.36L1259.17 245.85" stroke="hsl(228.5, 77.2%, 51.5%)" stroke-width="1.5"></path><path d="M1107.4 230.75L1107.4 230.75" stroke="hsl(228.5, 77.2%, 51.5%)" stroke-width="1.5"></path><path d="M1107.4 230.75L1125.71 377.45" stroke="hsl(228.5, 77.2%, 51.5%)" stroke-width="1.5"></path><path d="M1107.4 230.75L1259.17 245.85" stroke="hsl(228.5, 77.2%, 51.5%)" stroke-width="1.5"></path><path d="M1107.4 230.75L994.19 390.49" stroke="hsl(228.5, 77.2%, 51.5%)" stroke-width="1.5"></path><path d="M1125.71 377.45L1125.71 377.45" stroke="hsl(228.5, 77.2%, 51.5%)" stroke-width="1.5"></path><path d="M1125.71 377.45L1262.07 398.02" stroke="hsl(228.5, 77.2%, 51.5%)" stroke-width="1.5"></path><path d="M1114.24 702.19L1114.24 702.19" stroke="hsl(228.5, 77.2%, 51.5%)" stroke-width="1.5"></path><path d="M1114.24 702.19L1311.75 661.79" stroke="hsl(228.5, 77.2%, 51.5%)" stroke-width="1.5"></path><path d="M1284.85 -59.97L1284.85 -59.97" stroke="hsl(228.5, 77.2%, 51.5%)" stroke-width="1.5"></path><path d="M1284.85 -59.97L1259.39 42.81" stroke="hsl(228.5, 77.2%, 51.5%)" stroke-width="1.5"></path><path d="M1284.85 -59.97L1394.12 62.82" stroke="hsl(228.5, 77.2%, 51.5%)" stroke-width="1.5"></path><path d="M1284.85 -59.97L1581.14 -58.37" stroke="hsl(228.5, 77.2%, 51.5%)" stroke-width="1.5"></path><path d="M1284.85 -59.97L1564.9 64.22" stroke="hsl(228.5, 77.2%, 51.5%)" stroke-width="1.5"></path><path d="M1259.39 42.81L1259.39 42.81" stroke="hsl(228.5, 77.2%, 51.5%)" stroke-width="1.5"></path><path d="M1259.17 245.85L1259.17 245.85" stroke="hsl(228.5, 77.2%, 51.5%)" stroke-width="1.5"></path><path d="M1259.17 245.85L1401.24 233.89" stroke="hsl(228.5, 77.2%, 51.5%)" stroke-width="1.5"></path><path d="M1259.17 245.85L1262.07 398.02" stroke="hsl(228.5, 77.2%, 51.5%)" stroke-width="1.5"></path><path d="M1259.17 245.85L1125.71 377.45" stroke="hsl(228.5, 77.2%, 51.5%)" stroke-width="1.5"></path><path d="M1262.07 398.02L1262.07 398.02" stroke="hsl(228.5, 77.2%, 51.5%)" stroke-width="1.5"></path><path d="M1262.07 398.02L1238.83 508.65" stroke="hsl(228.5, 77.2%, 51.5%)" stroke-width="1.5"></path><path d="M1262.07 398.02L1412.34 385.42" stroke="hsl(228.5, 77.2%, 51.5%)" stroke-width="1.5"></path><path d="M1262.07 398.02L1390.85 501.46" stroke="hsl(228.5, 77.2%, 51.5%)" stroke-width="1.5"></path><path d="M1238.83 508.65L1238.83 508.65" stroke="hsl(228.5, 77.2%, 51.5%)" stroke-width="1.5"></path><path d="M1238.83 508.65L1390.85 501.46" stroke="hsl(228.5, 77.2%, 51.5%)" stroke-width="1.5"></path><path d="M1311.75 661.79L1311.75 661.79" stroke="hsl(228.5, 77.2%, 51.5%)" stroke-width="1.5"></path><path d="M1311.75 661.79L1443.48 674.89" stroke="hsl(228.5, 77.2%, 51.5%)" stroke-width="1.5"></path><path d="M1311.75 661.79L1238.83 508.65" stroke="hsl(228.5, 77.2%, 51.5%)" stroke-width="1.5"></path><path d="M1311.75 661.79L1390.85 501.46" stroke="hsl(228.5, 77.2%, 51.5%)" stroke-width="1.5"></path><path d="M1394.12 62.82L1394.12 62.82" stroke="hsl(228.5, 77.2%, 51.5%)" stroke-width="1.5"></path><path d="M1394.12 62.82L1259.39 42.81" stroke="hsl(228.5, 77.2%, 51.5%)" stroke-width="1.5"></path><path d="M1394.12 62.82L1564.9 64.22" stroke="hsl(228.5, 77.2%, 51.5%)" stroke-width="1.5"></path><path d="M1394.12 62.82L1401.24 233.89" stroke="hsl(228.5, 77.2%, 51.5%)" stroke-width="1.5"></path><path d="M1394.12 62.82L1581.14 -58.37" stroke="hsl(228.5, 77.2%, 51.5%)" stroke-width="1.5"></path><path d="M1394.12 62.82L1259.17 245.85" stroke="hsl(228.5, 77.2%, 51.5%)" stroke-width="1.5"></path><path d="M1401.24 233.89L1401.24 233.89" stroke="hsl(228.5, 77.2%, 51.5%)" stroke-width="1.5"></path><path d="M1401.24 233.89L1412.34 385.42" stroke="hsl(228.5, 77.2%, 51.5%)" stroke-width="1.5"></path><path d="M1412.34 385.42L1412.34 385.42" stroke="hsl(228.5, 77.2%, 51.5%)" stroke-width="1.5"></path><path d="M1412.34 385.42L1390.85 501.46" stroke="hsl(228.5, 77.2%, 51.5%)" stroke-width="1.5"></path><path d="M1412.34 385.42L1589.91 386.33" stroke="hsl(228.5, 77.2%, 51.5%)" stroke-width="1.5"></path><path d="M1412.34 385.42L1539.05 519.47" stroke="hsl(228.5, 77.2%, 51.5%)" stroke-width="1.5"></path><path d="M1390.85 501.46L1390.85 501.46" stroke="hsl(228.5, 77.2%, 51.5%)" stroke-width="1.5"></path><path d="M1390.85 501.46L1539.05 519.47" stroke="hsl(228.5, 77.2%, 51.5%)" stroke-width="1.5"></path><path d="M1443.48 674.89L1443.48 674.89" stroke="hsl(228.5, 77.2%, 51.5%)" stroke-width="1.5"></path><path d="M1443.48 674.89L1541.18 662.98" stroke="hsl(228.5, 77.2%, 51.5%)" stroke-width="1.5"></path><path d="M1443.48 674.89L1390.85 501.46" stroke="hsl(228.5, 77.2%, 51.5%)" stroke-width="1.5"></path><path d="M1443.48 674.89L1539.05 519.47" stroke="hsl(228.5, 77.2%, 51.5%)" stroke-width="1.5"></path><path d="M1443.48 674.89L1238.83 508.65" stroke="hsl(228.5, 77.2%, 51.5%)" stroke-width="1.5"></path><path d="M1443.48 674.89L1412.34 385.42" stroke="hsl(228.5, 77.2%, 51.5%)" stroke-width="1.5"></path><path d="M1581.14 -58.37L1581.14 -58.37" stroke="hsl(228.5, 77.2%, 51.5%)" stroke-width="1.5"></path><path d="M1581.14 -58.37L1564.9 64.22" stroke="hsl(228.5, 77.2%, 51.5%)" stroke-width="1.5"></path><path d="M1581.14 -58.37L1596.36 199.16" stroke="hsl(228.5, 77.2%, 51.5%)" stroke-width="1.5"></path><path d="M1581.14 -58.37L1259.39 42.81" stroke="hsl(228.5, 77.2%, 51.5%)" stroke-width="1.5"></path><path d="M1581.14 -58.37L1401.24 233.89" stroke="hsl(228.5, 77.2%, 51.5%)" stroke-width="1.5"></path><path d="M1564.9 64.22L1564.9 64.22" stroke="hsl(228.5, 77.2%, 51.5%)" stroke-width="1.5"></path><path d="M1564.9 64.22L1596.36 199.16" stroke="hsl(228.5, 77.2%, 51.5%)" stroke-width="1.5"></path><path d="M1564.9 64.22L1401.24 233.89" stroke="hsl(228.5, 77.2%, 51.5%)" stroke-width="1.5"></path><path d="M1564.9 64.22L1259.39 42.81" stroke="hsl(228.5, 77.2%, 51.5%)" stroke-width="1.5"></path><path d="M1596.36 199.16L1596.36 199.16" stroke="hsl(228.5, 77.2%, 51.5%)" stroke-width="1.5"></path><path d="M1596.36 199.16L1589.91 386.33" stroke="hsl(228.5, 77.2%, 51.5%)" stroke-width="1.5"></path><path d="M1596.36 199.16L1401.24 233.89" stroke="hsl(228.5, 77.2%, 51.5%)" stroke-width="1.5"></path><path d="M1589.91 386.33L1589.91 386.33" stroke="hsl(228.5, 77.2%, 51.5%)" stroke-width="1.5"></path><path d="M1589.91 386.33L1539.05 519.47" stroke="hsl(228.5, 77.2%, 51.5%)" stroke-width="1.5"></path><path d="M1589.91 386.33L1390.85 501.46" stroke="hsl(228.5, 77.2%, 51.5%)" stroke-width="1.5"></path><path d="M1589.91 386.33L1401.24 233.89" stroke="hsl(228.5, 77.2%, 51.5%)" stroke-width="1.5"></path><path d="M1539.05 519.47L1539.05 519.47" stroke="hsl(228.5, 77.2%, 51.5%)" stroke-width="1.5"></path><path d="M1539.05 519.47L1541.18 662.98" stroke="hsl(228.5, 77.2%, 51.5%)" stroke-width="1.5"></path><path d="M1541.18 662.98L1541.18 662.98" stroke="hsl(228.5, 77.2%, 51.5%)" stroke-width="1.5"></path><path d="M1541.18 662.98L1390.85 501.46" stroke="hsl(228.5, 77.2%, 51.5%)" stroke-width="1.5"></path><path d="M1541.18 662.98L1311.75 661.79" stroke="hsl(228.5, 77.2%, 51.5%)" stroke-width="1.5"></path><path d="M1541.18 662.98L1589.91 386.33" stroke="hsl(228.5, 77.2%, 51.5%)" stroke-width="1.5"></path><path d="M1541.18 662.98L1412.34 385.42" stroke="hsl(228.5, 77.2%, 51.5%)" stroke-width="1.5"></path><circle r="25" cx="107.9" cy="539.62" fill="url(#SvgjsRadialGradient1055)"></circle><circle r="25" cx="526.71" cy="709.47" fill="url(#SvgjsRadialGradient1055)"></circle><circle r="25" cx="845.91" cy="515.09" fill="url(#SvgjsRadialGradient1055)"></circle><circle r="25" cx="848.9" cy="705.53" fill="url(#SvgjsRadialGradient1055)"></circle><circle r="25" cx="1134.25" cy="533.07" fill="url(#SvgjsRadialGradient1055)"></circle><circle r="5" cx="-87.13" cy="544.34" fill="#8b9ad9"></circle><circle r="5" cx="-80.39" cy="693.32" fill="#8b9ad9"></circle><circle r="5" cx="74.78" cy="710.58" fill="#8b9ad9"></circle><circle r="5" cx="252.06" cy="656.44" fill="#8b9ad9"></circle><circle r="5" cx="345.11" cy="525.94" fill="#8b9ad9"></circle><circle r="5" cx="383.18" cy="650.44" fill="#8b9ad9"></circle><circle r="5" cx="530.57" cy="550.81" fill="#8b9ad9"></circle><circle r="5" cx="701.09" cy="370.01" fill="#8b9ad9"></circle><circle r="5" cx="664.04" cy="514.52" fill="#8b9ad9"></circle><circle r="5" cx="672.81" cy="658.31" fill="#8b9ad9"></circle><circle r="5" cx="854.49" cy="408.6" fill="#8b9ad9"></circle><circle r="5" cx="994.19" cy="390.49" fill="#8b9ad9"></circle><circle r="5" cx="958.63" cy="497.79" fill="#8b9ad9"></circle><circle r="5" cx="953.38" cy="708.81" fill="#8b9ad9"></circle><circle r="5" cx="1152.42" cy="-104.51" fill="#8b9ad9"></circle><circle r="5" cx="1143.44" cy="64.36" fill="#8b9ad9"></circle><circle r="5" cx="1107.4" cy="230.75" fill="#8b9ad9"></circle><circle r="5" cx="1125.71" cy="377.45" fill="#8b9ad9"></circle><circle r="5" cx="1114.24" cy="702.19" fill="#8b9ad9"></circle><circle r="5" cx="1284.85" cy="-59.97" fill="#8b9ad9"></circle><circle r="5" cx="1259.39" cy="42.81" fill="#8b9ad9"></circle><circle r="5" cx="1259.17" cy="245.85" fill="#8b9ad9"></circle><circle r="5" cx="1262.07" cy="398.02" fill="#8b9ad9"></circle><circle r="5" cx="1238.83" cy="508.65" fill="#8b9ad9"></circle><circle r="5" cx="1311.75" cy="661.79" fill="#8b9ad9"></circle><circle r="5" cx="1394.12" cy="62.82" fill="#8b9ad9"></circle><circle r="5" cx="1401.24" cy="233.89" fill="#8b9ad9"></circle><circle r="5" cx="1412.34" cy="385.42" fill="#8b9ad9"></circle><circle r="5" cx="1390.85" cy="501.46" fill="#8b9ad9"></circle><circle r="5" cx="1443.48" cy="674.89" fill="#8b9ad9"></circle><circle r="5" cx="1581.14" cy="-58.37" fill="#8b9ad9"></circle><circle r="5" cx="1564.9" cy="64.22" fill="#8b9ad9"></circle><circle r="5" cx="1596.36" cy="199.16" fill="#8b9ad9"></circle><circle r="5" cx="1589.91" cy="386.33" fill="#8b9ad9"></circle><circle r="5" cx="1539.05" cy="519.47" fill="#8b9ad9"></circle><circle r="5" cx="1541.18" cy="662.98" fill="#8b9ad9"></circle></g><defs><mask id="SvgjsMask1054"><rect width="1440" height="560" fill="#ffffff"></rect></mask><radialGradient id="SvgjsRadialGradient1055"><stop stop-color="#ffffff" offset="0.1"></stop><stop stop-color="#1735b3" offset="0.2"></stop><stop stop-color="rgba(23, 53, 179, 0)" offset="1"></stop></radialGradient></defs></svg>